<svg width="36" height="35" viewBox="0 0 36 35" fill="none" xmlns="http://www.w3.org/2000/svg">
<path fill-rule="evenodd" clip-rule="evenodd" d="M26.8918 16.2382C24.6172 16.2382 22.5595 17.1857 21.0693 18.7176C19.5789 20.2482 18.6572 22.3647 18.6572 24.7027C18.6572 27.0393 19.579 29.156 21.0693 30.6878C22.5597 32.2184 24.6172 33.1673 26.8918 33.1673C29.1663 33.1673 31.224 32.2198 32.7142 30.6878C34.2032 29.1573 35.1263 27.0408 35.1263 24.7027C35.1263 22.3661 34.2046 20.2495 32.7142 18.7176C31.2239 17.1856 29.1649 16.2382 26.8918 16.2382ZM26.8918 24.1458C27.0407 24.1458 27.1754 24.2085 27.2732 24.3076C27.3697 24.4082 27.4306 24.5452 27.4306 24.6997C27.4306 24.8528 27.3697 24.9912 27.2732 25.0918C27.1754 25.1924 27.0407 25.2536 26.8918 25.2536C26.7429 25.2536 26.6082 25.1924 26.5103 25.0918C26.4125 24.9913 26.3529 24.8542 26.3529 24.6997C26.3529 24.5467 26.4139 24.4082 26.5103 24.3076C26.6082 24.2085 26.7429 24.1458 26.8918 24.1458ZM25.8921 23.6721C26.1473 23.4082 26.5018 23.2464 26.8918 23.2464C27.2817 23.2464 27.6363 23.4082 27.8915 23.6721C28.1467 23.9359 28.3055 24.2989 28.3055 24.6997C28.3055 25.102 28.1467 25.465 27.8915 25.7274C27.6348 25.9897 27.2817 26.153 26.8918 26.153C26.5018 26.153 26.1473 25.9897 25.8921 25.7274C25.6354 25.4635 25.478 25.1006 25.478 24.6997C25.478 24.2989 25.6354 23.9359 25.8921 23.6721ZM24.0401 19.6214C24.4357 19.3882 25.1164 19.6725 25.8991 20.3226C26.0253 20.4261 26.1515 20.5398 26.2792 20.6607C25.953 21.0295 25.6297 21.4421 25.3149 21.891C24.7775 21.9464 24.267 22.028 23.7934 22.1344C23.7537 21.9595 23.7225 21.7904 23.6984 21.6272C23.5438 20.6068 23.6459 19.8561 24.0401 19.6214ZM24.0273 23.0017C24.2372 22.9565 24.4542 22.9157 24.6782 22.8807C24.6045 23.0046 24.5321 23.13 24.4598 23.2568L24.4584 23.2597C24.3875 23.3865 24.3166 23.5148 24.25 23.6431C24.1677 23.4259 24.094 23.2117 24.0273 23.0017ZM24.7009 24.7014C24.8555 24.3734 25.0285 24.0411 25.2142 23.7072C25.4014 23.3734 25.5957 23.0557 25.7957 22.7525C26.1502 22.7262 26.516 22.7131 26.8904 22.7131C27.2662 22.7131 27.632 22.7262 27.9865 22.7525C28.185 23.0542 28.3793 23.3734 28.5651 23.7058C28.7523 24.0396 28.9253 24.3734 29.0798 24.7014C28.9253 25.0308 28.7523 25.3631 28.5651 25.6969C28.3793 26.0293 28.185 26.3471 27.9865 26.6488C27.632 26.675 27.2647 26.6896 26.8904 26.6896C26.5146 26.6896 26.1487 26.6765 25.7942 26.6488C25.5957 26.3471 25.4014 26.0278 25.2142 25.6955C25.0285 25.3631 24.8569 25.0308 24.7009 24.7014ZM26.465 27.5832C26.6068 27.5875 26.75 27.589 26.8932 27.589C27.0364 27.589 27.1796 27.5875 27.32 27.5832C27.1782 27.7654 27.035 27.9374 26.8932 28.1006C26.75 27.9359 26.6068 27.7639 26.465 27.5832ZM27.5044 28.7405C27.8291 28.3718 28.1539 27.9592 28.4672 27.5103C29.0047 27.4549 29.5151 27.3718 29.9888 27.2668C30.0271 27.4403 30.0597 27.6094 30.0838 27.7741C30.2383 28.7959 30.1377 29.5466 29.7435 29.7813C29.3478 30.0145 28.6672 29.7303 27.8844 29.0802C27.7596 28.9752 27.632 28.8615 27.5044 28.7405ZM29.7562 26.3996C29.5463 26.4448 29.3294 26.4856 29.1053 26.5206C29.1791 26.3967 29.2528 26.2698 29.3251 26.143C29.396 26.0148 29.4655 25.8865 29.5336 25.7597C29.6144 25.9769 29.6896 26.1911 29.7562 26.3996ZM27.3186 21.8183C27.1782 21.8139 27.035 21.8125 26.8918 21.8125C26.7486 21.8125 26.6053 21.8139 26.465 21.8183C26.6068 21.6375 26.75 21.4655 26.8918 21.3023C27.035 21.4655 27.1782 21.6376 27.3186 21.8183ZM22.8375 21.7658C22.6248 20.3694 22.863 19.2849 23.6019 18.8462H23.6033C24.3435 18.4074 25.3758 18.7368 26.4464 19.6245C26.5939 19.7455 26.7414 19.8782 26.8917 20.0225C27.0406 19.8796 27.1895 19.7455 27.337 19.6245C28.4076 18.7368 29.4414 18.4074 30.1816 18.8462C30.9204 19.2849 31.1586 20.3694 30.9459 21.7673C30.9161 21.9582 30.8793 22.1579 30.8325 22.362C31.0282 22.4232 31.2139 22.4888 31.3898 22.5588C32.6745 23.069 33.47 23.824 33.47 24.7016C33.47 25.5791 32.6745 26.3341 31.3912 26.8443C31.2139 26.9143 31.0282 26.9799 30.8325 27.0411C30.8778 27.2466 30.9161 27.4448 30.9459 27.6358C31.1586 29.0337 30.9204 30.1182 30.1816 30.557H30.1787C29.4399 30.9957 28.4062 30.6663 27.337 29.7786C27.1895 29.6576 27.0406 29.5235 26.8917 29.3806C26.7414 29.5235 26.5939 29.6576 26.4464 29.7786C25.3758 30.6663 24.3435 30.9957 23.6033 30.557L23.6019 30.5555C22.863 30.1167 22.6234 29.0337 22.8375 27.6358C22.8659 27.4449 22.9042 27.2452 22.951 27.0411C22.7553 26.9799 22.5695 26.9143 22.3922 26.8443C21.1075 26.3341 20.3134 25.5791 20.3134 24.7015C20.3134 23.824 21.1089 23.069 22.3922 22.5588C22.5695 22.4888 22.7553 22.4232 22.951 22.362C22.9042 22.1565 22.8659 21.9568 22.8375 21.7658ZM27.5041 20.6609C27.6317 20.54 27.7594 20.4263 27.8842 20.3228C28.6684 19.6741 29.349 19.3884 29.7432 19.6216C30.1388 19.8563 30.2395 20.6055 30.085 21.6288C30.0594 21.7921 30.0283 21.9626 29.99 22.1361C29.5163 22.0297 29.0044 21.9481 28.4684 21.8927C28.1536 21.4423 27.8288 21.0297 27.5041 20.6609ZM29.1051 22.8809C29.3292 22.9159 29.5461 22.9567 29.756 23.0019C29.6894 23.2118 29.6156 23.4246 29.5334 23.6418C29.4667 23.515 29.3958 23.3867 29.3249 23.2585C29.2512 23.1302 29.1789 23.0048 29.1051 22.8809ZM30.0453 24.7015C30.2679 24.1957 30.4537 23.7016 30.6011 23.2264C30.7684 23.2803 30.9273 23.3357 31.0776 23.3955C32.0149 23.7686 32.5949 24.2322 32.5949 24.7015C32.5949 25.1694 32.0149 25.6344 31.0776 26.0076C30.9273 26.0674 30.7684 26.1242 30.6011 26.1767C30.4536 25.7015 30.2665 25.2073 30.0453 24.7015ZM26.2789 28.7406C26.1513 28.8616 26.0237 28.9753 25.8989 29.0788C25.1162 29.7274 24.434 30.0131 24.0398 29.7785C23.6442 29.5438 23.5435 28.7945 23.6981 27.7727C23.7222 27.6095 23.7534 27.4389 23.7931 27.2655C24.2667 27.3704 24.7772 27.4535 25.3147 27.5089C25.6309 27.9593 25.9542 28.3718 26.2789 28.7406ZM24.6794 26.5221C24.4554 26.4871 24.2384 26.4463 24.0285 26.4011C24.0952 26.1912 24.1689 25.9769 24.2511 25.7612C24.3178 25.888 24.3887 26.0163 24.4596 26.1445C24.5319 26.2713 24.6043 26.3982 24.6794 26.5221ZM23.7378 24.7015C23.5166 25.2073 23.3308 25.7014 23.182 26.1766C23.0146 26.1227 22.8558 26.0673 22.7055 26.0075C21.7682 25.6344 21.1868 25.1708 21.1868 24.7015C21.1868 24.2335 21.7668 23.7686 22.7055 23.3954C22.8558 23.3356 23.0146 23.2788 23.182 23.2263C23.3309 23.7 23.5166 24.1957 23.7378 24.7015ZM26.2123 15.1758V15.3624C26.4363 15.3464 26.6632 15.3362 26.8915 15.3362C29.4071 15.3362 31.6845 16.3842 33.3322 18.0795C34.9799 19.7748 36.001 22.1141 36.001 24.7001C36.001 27.2845 34.9814 29.6269 33.3322 31.3207C31.6844 33.0159 29.4072 34.0654 26.8915 34.0654C25.1246 34.0654 23.4769 33.548 22.0801 32.6529C21.2633 32.8818 20.3473 33.0655 19.3631 33.1923C18.3435 33.3235 17.246 33.3949 16.1073 33.3949C13.3875 33.3949 10.9186 32.9867 9.12352 32.3279C7.20206 31.6209 6.01092 30.5918 6.00098 29.4053V8.05502C6.00948 6.86849 7.20206 5.83793 9.12352 5.13244C10.9173 4.47359 13.3875 4.06543 16.1073 4.06543C18.8271 4.06543 21.2959 4.47359 23.091 5.13244C25.0139 5.83939 26.205 6.86994 26.2136 8.05793L26.215 8.06959V8.07688L26.2123 15.1758ZM25.2835 15.4834C23.5222 15.8055 21.9355 16.6481 20.6818 17.8521C20.0154 17.9877 19.2978 18.0941 18.5449 18.167C17.7777 18.2413 16.9609 18.2821 16.1073 18.2821C13.4882 18.2821 11.123 17.8944 9.41829 17.2676C7.84852 16.6903 6.87716 15.9484 6.87716 15.1787L6.87574 9.75189C7.41319 10.2344 8.18036 10.6585 9.12192 11.004C10.9157 11.6643 13.3859 12.071 16.1057 12.071C18.8254 12.071 21.2943 11.6629 23.0894 11.004C24.0324 10.6571 24.7981 10.2329 25.3356 9.75189V15.1847C25.3342 15.2649 25.3243 15.3407 25.3044 15.415C25.2987 15.4369 25.292 15.4601 25.2835 15.4834ZM19.7206 18.9264C18.5067 20.5181 17.7821 22.5224 17.7821 24.7003C17.7821 24.9131 17.7892 25.1244 17.802 25.3329C17.5921 25.346 17.3865 25.3591 17.1851 25.3664C16.8547 25.3795 16.4946 25.3868 16.106 25.3868C13.4869 25.3868 11.1217 24.9991 9.41701 24.3723C7.84725 23.795 6.87588 23.0531 6.87588 22.2834V16.8596C7.41333 17.3421 8.1805 17.7663 9.12206 18.1117C10.9159 18.772 13.3861 19.1787 16.1058 19.1787C16.9651 19.1787 17.8103 19.1365 18.6257 19.0577C19 19.0228 19.3647 18.9789 19.7206 18.9264ZM17.9026 26.2276C18.2175 28.2027 19.1335 29.9693 20.4509 31.322C20.6707 31.5479 20.9018 31.7636 21.1443 31.9648C20.5558 32.1004 19.9234 32.2126 19.2569 32.3001C18.2728 32.4269 17.2121 32.4954 16.106 32.4954C13.4869 32.4954 11.1218 32.1077 9.41702 31.4809C7.84725 30.9036 6.87589 30.1617 6.87589 29.392V23.9667C7.41334 24.4492 8.1805 24.8733 9.12206 25.2203C10.9159 25.8791 13.3861 26.2873 16.1058 26.2873C16.4589 26.2873 16.8304 26.28 17.219 26.2625C17.4558 26.2537 17.6843 26.2407 17.9026 26.2276ZM22.7961 5.97927C21.0917 5.35248 18.7263 4.96473 16.1072 4.96473C13.4881 4.96473 11.1229 5.35248 9.41818 5.97927C7.84841 6.55651 6.87705 7.29846 6.87705 8.0681C6.87705 8.83774 7.84841 9.58115 9.41818 10.1569C11.1227 10.7837 13.488 11.1715 16.1072 11.1715C18.7263 11.1715 21.0914 10.7837 22.7961 10.1569C24.3617 9.58115 25.333 8.84069 25.3373 8.07251V8.06668C25.3358 7.29849 24.3645 6.55651 22.7961 5.97927Z" fill="url(#paint0_linear_752_3842)"/>
<defs>
<linearGradient id="paint0_linear_752_3842" x1="6.99727" y1="13.6899" x2="35.0047" y2="24.4409" gradientUnits="userSpaceOnUse">
<stop offset="0.423077" stop-color="#8356FF"/>
<stop offset="1" stop-color="#367CFF"/>
</linearGradient>
</defs>
</svg>
