<svg width="36" height="36" viewBox="0 0 36 36" fill="none" xmlns="http://www.w3.org/2000/svg">
<g clip-path="url(#clip0_752_3851)">
<path d="M2.68572 7.82861H32.8611C33.8003 7.82861 34.6536 8.20785 35.2717 8.81881C35.8898 9.42975 36.2734 10.2731 36.2734 11.2015V28.4557C36.2734 29.3841 35.8898 30.2275 35.2717 30.8384C34.6536 31.4494 33.8003 31.8286 32.8611 31.8286H2.68572C1.74652 31.8286 0.89327 31.4494 0.275202 30.8384C-0.342899 30.2275 -0.726562 29.3841 -0.726562 28.4557V11.2015C-0.726562 10.2731 -0.342898 9.42974 0.275202 8.81881C0.893273 8.20785 1.74652 7.82861 2.68572 7.82861ZM32.8611 9.35809H2.68572C2.17365 9.35809 1.70757 9.56571 1.36919 9.90018C1.03082 10.2346 0.820768 10.6953 0.820768 11.2015V28.4557C0.820768 28.9619 1.03082 29.4226 1.36919 29.7571C1.70757 30.0915 2.17364 30.2992 2.68572 30.2992H32.8611C33.3732 30.2992 33.8393 30.0915 34.1777 29.7571C34.516 29.4226 34.7261 28.9619 34.7261 28.4557V11.2015C34.7261 10.6953 34.516 10.2347 34.1777 9.90018C33.8393 9.56571 33.3732 9.35809 32.8611 9.35809Z" fill="url(#paint0_linear_752_3851)"/>
<path d="M31.512 24.3473C31.9392 24.3473 32.2856 24.0049 32.2856 23.5826C32.2856 23.1603 31.9392 22.8179 31.512 22.8179H18.0481C17.6208 22.8179 17.2744 23.1603 17.2744 23.5826C17.2744 24.0049 17.6208 24.3473 18.0481 24.3473H31.512Z" fill="url(#paint1_linear_752_3851)"/>
<path d="M31.5085 26.9721C31.9358 26.9721 32.2822 26.6297 32.2822 26.2074C32.2822 25.785 31.9358 25.4426 31.5085 25.4426H27.7873C27.3601 25.4426 27.0137 25.785 27.0137 26.2074C27.0137 26.6297 27.3601 26.9721 27.7873 26.9721H31.5085Z" fill="url(#paint2_linear_752_3851)"/>
<path d="M8.92884 23.0514C8.75857 23.0514 8.59629 23.0729 8.4446 23.113C8.28395 23.1555 8.13358 23.2175 7.99638 23.2959C7.73387 23.446 7.41979 23.4284 7.18279 23.2737C7.05652 23.2057 6.91968 23.1514 6.77448 23.113C6.6228 23.0729 6.46049 23.0514 6.29022 23.0514C5.77514 23.0514 5.30887 23.2578 4.97143 23.5913C4.634 23.9248 4.42526 24.3858 4.42526 24.8949C4.42526 25.404 4.634 25.8649 4.97143 26.1985C5.30887 26.532 5.77514 26.7383 6.29022 26.7383C6.46049 26.7383 6.6228 26.7169 6.77448 26.6768C6.93513 26.6343 7.0855 26.5723 7.22271 26.4939C7.48521 26.3438 7.79929 26.3614 8.0363 26.516C8.16257 26.5841 8.2994 26.6384 8.4446 26.6768C8.59629 26.7169 8.75857 26.7383 8.92884 26.7383C9.44391 26.7383 9.91021 26.532 10.2477 26.1985C10.5851 25.8649 10.7938 25.4041 10.7938 24.8949C10.7938 24.3858 10.5851 23.9248 10.2477 23.5913C9.91022 23.2578 9.44391 23.0514 8.92884 23.0514ZM8.04569 21.6373C8.33001 21.5621 8.62618 21.522 8.92884 21.522C9.87101 21.522 10.7241 21.8995 11.3416 22.5099C11.9592 23.1203 12.3412 23.9636 12.3412 24.8949C12.3412 25.8262 11.9592 26.6694 11.3416 27.2798C10.7241 27.8902 9.871 28.2678 8.92884 28.2678C8.62618 28.2678 8.33001 28.2277 8.04569 28.1524C7.89649 28.113 7.75083 28.0634 7.60954 28.0045C7.46822 28.0634 7.32259 28.113 7.17339 28.1524C6.88907 28.2277 6.59284 28.2678 6.29021 28.2678C5.34804 28.2678 4.49496 27.8902 3.87744 27.2798C3.25991 26.6694 2.87793 25.8262 2.87793 24.8949C2.87793 23.9636 3.25991 23.1203 3.87744 22.5099C4.49497 21.8995 5.34805 21.522 6.29021 21.522C6.59284 21.522 6.88907 21.5621 7.17339 21.6373C7.32259 21.6768 7.46822 21.7264 7.60954 21.7852C7.75086 21.7264 7.89649 21.6768 8.04569 21.6373Z" fill="url(#paint3_linear_752_3851)"/>
<path d="M0.0471027 12.2512C-0.380165 12.2512 -0.726562 12.5936 -0.726562 13.016C-0.726562 13.4383 -0.380163 13.7807 0.0471027 13.7807H35.4998C35.927 13.7807 36.2734 13.4383 36.2734 13.016C36.2734 12.5936 35.927 12.2512 35.4998 12.2512H0.0471027Z" fill="url(#paint4_linear_752_3851)"/>
<path d="M0.0471027 16.5305C-0.380165 16.5305 -0.726562 16.8729 -0.726562 17.2953C-0.726562 17.7176 -0.380163 18.06 0.0471027 18.06H35.4998C35.927 18.06 36.2734 17.7176 36.2734 17.2953C36.2734 16.8729 35.927 16.5305 35.4998 16.5305H0.0471027Z" fill="url(#paint5_linear_752_3851)"/>
</g>
<defs>
<linearGradient id="paint0_linear_752_3851" x1="0.502199" y1="15.5282" x2="29.8548" y2="32.8988" gradientUnits="userSpaceOnUse">
<stop offset="0.423077" stop-color="#8356FF"/>
<stop offset="1" stop-color="#367CFF"/>
</linearGradient>
<linearGradient id="paint1_linear_752_3851" x1="17.7729" y1="23.3085" x2="18.8312" y2="27.2955" gradientUnits="userSpaceOnUse">
<stop offset="0.423077" stop-color="#8356FF"/>
<stop offset="1" stop-color="#367CFF"/>
</linearGradient>
<linearGradient id="paint2_linear_752_3851" x1="27.1886" y1="25.9333" x2="29.2419" y2="28.6483" gradientUnits="userSpaceOnUse">
<stop offset="0.423077" stop-color="#8356FF"/>
<stop offset="1" stop-color="#367CFF"/>
</linearGradient>
<linearGradient id="paint3_linear_752_3851" x1="3.1922" y1="23.6861" x2="11.0501" y2="27.9176" gradientUnits="userSpaceOnUse">
<stop offset="0.423077" stop-color="#8356FF"/>
<stop offset="1" stop-color="#367CFF"/>
</linearGradient>
<linearGradient id="paint4_linear_752_3851" x1="0.5022" y1="12.7419" x2="0.956523" y2="16.9608" gradientUnits="userSpaceOnUse">
<stop offset="0.423077" stop-color="#8356FF"/>
<stop offset="1" stop-color="#367CFF"/>
</linearGradient>
<linearGradient id="paint5_linear_752_3851" x1="0.5022" y1="17.0212" x2="0.956522" y2="21.2401" gradientUnits="userSpaceOnUse">
<stop offset="0.423077" stop-color="#8356FF"/>
<stop offset="1" stop-color="#367CFF"/>
</linearGradient>
<clipPath id="clip0_752_3851">
<rect width="35.547" height="35.547" fill="white"/>
</clipPath>
</defs>
</svg>
