<svg width="36" height="36" viewBox="0 0 36 36" fill="none" xmlns="http://www.w3.org/2000/svg">
<path d="M17.7732 4.44336C15.8922 4.44336 14.2185 5.62826 13.5965 7.40561H4.44312V10.3679H7.33131L2.962 20.7357C2.26587 23.698 4.44312 25.1791 8.14593 25.1791C11.8487 25.1791 14.1593 23.698 13.3299 20.7357L8.96055 10.3679H13.5817C14.0704 11.6268 15.0332 12.5895 16.2921 13.0783V29.6225H2.962V32.5847H32.5845V29.6225H19.2544V13.0635C20.5133 12.5895 21.4761 11.6268 21.95 10.3679H26.5859L22.2166 20.7357C21.5205 23.698 23.6977 25.1791 27.4005 25.1791C31.1034 25.1791 33.4139 23.698 32.5845 20.7357L28.2152 10.3679H31.1034V7.40561H21.9648C21.3279 5.62826 19.6543 4.44336 17.7732 4.44336ZM17.7732 7.40561C18.1661 7.40561 18.5428 7.56165 18.8206 7.83942C19.0983 8.11718 19.2544 8.49391 19.2544 8.88673C19.2544 9.27955 19.0983 9.65628 18.8206 9.93404C18.5428 10.2118 18.1661 10.3679 17.7732 10.3679C17.3804 10.3679 17.0037 10.2118 16.7259 9.93404C16.4482 9.65628 16.2921 9.27955 16.2921 8.88673C16.2921 8.49391 16.4482 8.11718 16.7259 7.83942C17.0037 7.56165 17.3804 7.40561 17.7732 7.40561ZM8.14593 11.8389L11.624 20.7357H5.12402L8.14593 11.8389ZM27.4005 11.8389L31.1034 20.7357H24.124L27.4005 11.8389Z" fill="url(#paint0_linear_752_3844)"/>
<defs>
<linearGradient id="paint0_linear_752_3844" x1="3.82665" y1="13.4716" x2="31.2993" y2="24.6839" gradientUnits="userSpaceOnUse">
<stop offset="0.423077" stop-color="#8356FF"/>
<stop offset="1" stop-color="#367CFF"/>
</linearGradient>
</defs>
</svg>
