<svg width="36" height="36" viewBox="0 0 36 36" fill="none" xmlns="http://www.w3.org/2000/svg">
<path d="M2.97559 7.55669C2.97559 8.41461 3.31639 9.23738 3.92303 9.84402C4.52967 10.4507 5.35244 10.7915 6.21036 10.7915C7.06828 10.7915 7.89105 10.4507 8.49769 9.84402C9.10433 9.23738 9.44514 8.41461 9.44514 7.55669C9.44514 6.69878 9.10433 5.876 8.49769 5.26936C7.89105 4.66272 7.06828 4.32192 6.21036 4.32192C5.35244 4.32192 4.52967 4.66272 3.92303 5.26936C3.31639 5.876 2.97559 6.69878 2.97559 7.55669ZM11.3114 15.0838C10.9853 14.3195 10.4916 13.6384 9.86685 13.0907C9.24208 12.5429 8.50218 12.1426 7.70187 11.9194C6.90155 11.6961 6.06129 11.6556 5.24321 11.8008C4.42513 11.9461 3.65015 12.2733 2.97559 12.7584M26.0989 7.55669C26.0989 8.41461 26.4397 9.23738 27.0463 9.84402C27.653 10.4507 28.4758 10.7915 29.3337 10.7915C30.1916 10.7915 31.0144 10.4507 31.621 9.84402C32.2276 9.23738 32.5684 8.41461 32.5684 7.55669C32.5684 6.69878 32.2276 5.876 31.621 5.26936C31.0144 4.66272 30.1916 4.32192 29.3337 4.32192C28.4758 4.32192 27.653 4.66272 27.0463 5.26936C26.4397 5.876 26.0989 6.69878 26.0989 7.55669ZM24.2327 15.0838C24.5587 14.3195 25.0524 13.6384 25.6772 13.0907C26.3019 12.5429 27.0418 12.1426 27.8422 11.9194C28.6425 11.6961 29.4827 11.6556 30.3008 11.8008C31.1189 11.9461 31.8939 12.2733 32.5684 12.7584M12.8295 6.05335C12.8295 6.70241 12.9573 7.34511 13.2057 7.94477C13.4541 8.54442 13.8182 9.08928 14.2771 9.54823C14.7361 10.0072 15.2809 10.3712 15.8806 10.6196C16.4802 10.868 17.123 10.9959 17.772 10.9959C18.4211 10.9959 19.0638 10.868 19.6634 10.6196C20.2631 10.3712 20.8079 10.0072 21.2669 9.54823C21.7259 9.08928 22.0899 8.54442 22.3383 7.94477C22.5867 7.34511 22.7145 6.70241 22.7145 6.05335C22.7145 4.74251 22.1938 3.48537 21.2669 2.55847C20.34 1.63157 19.0828 1.11084 17.772 1.11084C16.4612 1.11084 15.204 1.63157 14.2771 2.55847C13.3502 3.48537 12.8295 4.74251 12.8295 6.05335Z" fill="url(#paint0_linear_752_3846)"/>
<path d="M26.3218 16.9737C25.2381 15.7833 23.9178 14.8324 22.4454 14.1817C20.973 13.5309 19.381 13.1948 17.7712 13.1948C16.1615 13.1948 14.5694 13.5309 13.0971 14.1817C11.6247 14.8324 10.3044 15.7833 9.2207 16.9737M23.6291 20.5225C23.6046 22.0601 22.9766 23.5266 21.8806 24.6053C20.7846 25.684 19.3083 26.2887 17.7705 26.2887C16.2326 26.2887 14.7564 25.684 13.6604 24.6053C12.5643 23.5266 11.9364 22.0601 11.9119 20.5225" fill="url(#paint1_linear_752_3846)"/>
<path d="M31.6845 20.5164V22.7188L29.1666 23.2224C28.8768 24.4433 28.39 25.609 27.7254 26.6734L29.1606 28.8121L26.0503 31.9225L23.913 30.4873C22.8473 31.1556 21.6796 31.6454 20.4561 31.9373L19.9584 34.4419H15.5743L15.0751 31.9373C13.8521 31.6452 12.6849 31.1555 11.6197 30.4873L9.4765 31.9166L6.36614 28.8062L7.80135 26.6675C7.13621 25.6031 6.64895 24.4375 6.35873 23.2164L3.84082 22.7129V20.5164" fill="url(#paint2_linear_752_3846)"/>
<defs>
<linearGradient id="paint0_linear_752_3846" x1="3.95836" y1="5.59358" x2="23.043" y2="21.1089" gradientUnits="userSpaceOnUse">
<stop offset="0.423077" stop-color="#8356FF"/>
<stop offset="1" stop-color="#367CFF"/>
</linearGradient>
<linearGradient id="paint1_linear_752_3846" x1="9.78863" y1="17.3955" x2="24.4271" y2="24.7344" gradientUnits="userSpaceOnUse">
<stop offset="0.423077" stop-color="#8356FF"/>
<stop offset="1" stop-color="#367CFF"/>
</linearGradient>
<linearGradient id="paint2_linear_752_3846" x1="4.7655" y1="24.9839" x2="23.5338" y2="39.389" gradientUnits="userSpaceOnUse">
<stop offset="0.423077" stop-color="#8356FF"/>
<stop offset="1" stop-color="#367CFF"/>
</linearGradient>
</defs>
</svg>
